<svg xmlns="http://www.w3.org/2000/svg" width="500" height="500" style="width:100%;height:100%;transform:translate3d(0,0,0);content-visibility:visible" viewBox="0 0 500 500"><defs><clipPath id="e"><path d="M0 0h500v500H0z"/></clipPath><clipPath id="l"><path d="M0 0h500v500H0z"/></clipPath><clipPath id="k"><path d="M0 0h500v500H0z"/></clipPath><clipPath id="i"><path d="M0 0h500v500H0z"/></clipPath><clipPath id="h"><path d="M0 0h500v500H0z"/></clipPath><clipPath id="f"><path d="M0 0h500v500H0z"/></clipPath><filter id="a" width="100%" height="100%" x="0%" y="0%" filterUnits="objectBoundingBox"><feComponentTransfer in="SourceGraphic"><feFuncA tableValues="1.0 0.0" type="table"/></feComponentTransfer></filter><filter id="c" width="100%" height="100%" x="0%" y="0%" filterUnits="objectBoundingBox"><feComponentTransfer in="SourceGraphic"><feFuncA tableValues="1.0 0.0" type="table"/></feComponentTransfer></filter><path id="b" class="primary design" style="display:none"/><path id="d" class="primary design" style="display:none"/><mask id="j" mask-type="alpha"><g filter="url(#a)"><path fill="#fff" d="M0 0h500v500H0z" opacity="0"/><use xmlns:ns1="http://www.w3.org/1999/xlink" ns1:href="#b"/></g></mask><mask id="g" mask-type="alpha"><g filter="url(#c)"><path fill="#fff" d="M0 0h500v500H0z" opacity="0"/><use xmlns:ns2="http://www.w3.org/1999/xlink" ns2:href="#d"/></g></mask></defs><g clip-path="url(#e)"><g clip-path="url(#f)" opacity="0" style="display:block"><path fill="none" stroke="#FFF" stroke-linecap="round" stroke-linejoin="round" stroke-width="31.3" d="m-153.047 11.53 19.836-114.058c1.735-9.979 10.397-17.264 20.526-17.264h225.37c10.129 0 18.791 7.285 20.526 17.264L153.12 11.951" class="primary design" opacity="1" style="display:block" transform="translate(249.997 302.082)"/><g class="primary design" mask="url(#g)" style="display:none"><path/><path fill="none"/></g><path fill="none" stroke="#FFF" stroke-linecap="round" stroke-linejoin="round" stroke-width="31.3" d="M147.106 119.792h-294.212c-12.933 0-21.362-6.329-25.772-23.481 0 0-8.12-34.143-12.15-53.812-2.632-12.842 14.451-27.081 28.518-27.081h312.993c14.067 0 28.987 13.987 28.493 27.081-.487 12.919-11.746 54.568-11.746 54.568-3.405 14.206-13.191 22.725-26.124 22.725z" class="primary design" opacity="1" style="display:block" transform="translate(249.997 302.081)"/><path fill="none" stroke="#FFF" stroke-linecap="round" stroke-linejoin="round" stroke-width="31.3" d="M-67.708 7.542v-28.376c0-37.394 30.314-67.708 67.708-67.708 0 0 0 0 0 0 37.394 0 67.708 30.314 67.708 67.708V7.542M-67.107 200.704-74 176.8c-11.284-40.284 23.002 32.031 74.337 32.031 0 0 0 0 0 0 67.665 0 84.004-72.211 73.61-31.688l-5.997 24.144" class="primary design" opacity="1" style="display:block" transform="translate(249.998 166.669)"/></g><g clip-path="url(#h)" opacity="0" style="display:block"><path fill="none" class="primary design" style="display:none"/><path fill="none" class="primary design" style="display:none"/><path fill="none" class="primary design" style="display:none"/><path fill="none" class="primary design" style="display:none"/><path fill="#FFF" d="M183.048 144.789 148.627-53.127a36.416 36.416 0 0 0-35.944-30.233H83.356v-20.805c0-45.964-37.395-83.359-83.359-83.359-45.964 0-83.358 37.395-83.358 83.359v20.805h-29.327a36.415 36.415 0 0 0-35.944 30.232l-34.419 197.916a36.402 36.402 0 0 0 8.022 29.735 36.405 36.405 0 0 0 27.922 13h294.211a36.398 36.398 0 0 0 27.919-12.999 36.402 36.402 0 0 0 8.025-29.735zM-52.061-104.165c0-28.705 23.354-52.059 52.059-52.059s52.058 23.354 52.058 52.059v20.805H-52.061v-20.805zM151.07 154.376c-.58.69-1.866 1.847-3.966 1.847h-294.211c-2.101 0-3.388-1.157-3.968-1.847-.58-.69-1.499-2.155-1.139-4.224l34.42-197.917a5.174 5.174 0 0 1 5.106-4.295h29.327V5.211c0 8.643 7.006 15.65 15.65 15.65s15.65-7.007 15.65-15.65V-52.06H52.056V5.211c0 8.643 7.006 15.65 15.65 15.65s15.65-7.007 15.65-15.65V-52.06h29.327a5.173 5.173 0 0 1 5.106 4.295l34.421 197.917c.36 2.069-.56 3.535-1.14 4.224z" class="primary design" opacity="1" style="display:block" transform="translate(250 250)"/></g><g clip-path="url(#i)" opacity="0" style="display:block"><path fill="none" class="primary design" style="display:none"/><g class="primary design" mask="url(#j)" style="display:none"><path/><path fill="none"/></g><path fill="none" class="primary design" style="display:none"/><path fill="none" class="primary design" style="display:none"/><path fill="none" class="primary design" style="display:none"/><path fill="#FFF" d="M183.048 144.789 148.627-53.127a36.416 36.416 0 0 0-35.944-30.233H83.356v-20.805c0-45.964-37.395-83.359-83.359-83.359-45.964 0-83.358 37.395-83.358 83.359v20.805h-29.327a36.415 36.415 0 0 0-35.944 30.232l-34.419 197.916a36.402 36.402 0 0 0 8.022 29.735 36.405 36.405 0 0 0 27.922 13h294.211a36.398 36.398 0 0 0 27.919-12.999 36.402 36.402 0 0 0 8.025-29.735zM-52.061-104.165c0-28.705 23.354-52.059 52.059-52.059s52.058 23.354 52.058 52.059v20.805H-52.061v-20.805zM151.07 154.376c-.58.69-1.866 1.847-3.966 1.847h-294.211c-2.101 0-3.388-1.157-3.968-1.847-.58-.69-1.499-2.155-1.139-4.224l34.42-197.917a5.174 5.174 0 0 1 5.106-4.295h29.327V5.211c0 8.643 7.006 15.65 15.65 15.65s15.65-7.007 15.65-15.65V-52.06H52.056V5.211c0 8.643 7.006 15.65 15.65 15.65s15.65-7.007 15.65-15.65V-52.06h29.327a5.173 5.173 0 0 1 5.106 4.295l34.421 197.917c.36 2.069-.56 3.535-1.14 4.224z" class="primary design" opacity="1" style="display:block" transform="translate(250 250)"/><path class="primary design" style="display:none"/></g><g clip-path="url(#k)" style="display:block"><path fill="none" class="primary design" style="display:none"/><path fill="none" class="primary design" style="display:none"/><path fill="#FFF" d="M183.048 144.789 148.627-53.127a36.416 36.416 0 0 0-35.944-30.233H83.356v-20.805c0-45.964-37.395-83.359-83.359-83.359-45.964 0-83.358 37.395-83.358 83.359v20.805h-29.327a36.415 36.415 0 0 0-35.944 30.232l-34.419 197.916a36.402 36.402 0 0 0 8.022 29.735 36.405 36.405 0 0 0 27.922 13h294.211a36.398 36.398 0 0 0 27.919-12.999 36.402 36.402 0 0 0 8.025-29.735zM-52.061-104.165c0-28.705 23.354-52.059 52.059-52.059s52.058 23.354 52.058 52.059v20.805H-52.061v-20.805zM151.07 154.376c-.58.69-1.866 1.847-3.966 1.847h-294.211c-2.101 0-3.388-1.157-3.968-1.847-.58-.69-1.499-2.155-1.139-4.224l34.42-197.917a5.174 5.174 0 0 1 5.106-4.295h29.327V5.211c0 8.643 7.006 15.65 15.65 15.65s15.65-7.007 15.65-15.65V-52.06H52.056V5.211c0 8.643 7.006 15.65 15.65 15.65s15.65-7.007 15.65-15.65V-52.06h29.327a5.173 5.173 0 0 1 5.106 4.295l34.421 197.917c.36 2.069-.56 3.535-1.14 4.224z" class="primary design" style="display:block" transform="translate(250 250)"/><path class="primary design" style="display:none"/></g><g clip-path="url(#l)" opacity="0" style="display:block"><path fill="none" class="primary design" style="display:none"/><path fill="none" class="primary design" style="display:none"/><path class="primary design" style="display:none"/></g><g class="com" style="display:none"><path/><path/><path/><path/><path/><path/><path/><path/><path/><path/><path/><path/></g></g></svg>