<svg xmlns="http://www.w3.org/2000/svg" width="500" height="500" style="width:100%;height:100%;transform:translate3d(0,0,0);content-visibility:visible" viewBox="0 0 500 500"><defs><clipPath id="a"><path d="M0 0h500v500H0z"/></clipPath><clipPath id="c"><path d="M0 0h500v500H0z"/></clipPath><clipPath id="b"><path d="M0 0h500v500H0z"/></clipPath></defs><g clip-path="url(#a)"><g fill="#FFF" class="primary design" clip-path="url(#b)" style="display:block"><path d="M276.455 458.362c-9.896 0-19.201-3.854-26.199-10.852v-.001L52.497 249.751a37.068 37.068 0 0 1-10.265-32.771L66.994 79.623a15.65 15.65 0 0 1 12.624-12.626l137.36-24.765a37.07 37.07 0 0 1 32.774 10.264l197.759 197.759c6.998 6.998 10.852 16.302 10.852 26.199 0 9.897-3.854 19.202-10.853 26.2L302.654 447.51c-6.998 6.998-16.303 10.852-26.199 10.852zM95.869 95.872 73.035 222.531a5.758 5.758 0 0 0 1.594 5.086l197.76 197.76v.001a5.727 5.727 0 0 0 4.066 1.684 5.73 5.73 0 0 0 4.067-1.684l144.856-144.857a5.729 5.729 0 0 0 1.686-4.067c0-.89-.219-2.601-1.685-4.066L227.619 74.629a5.751 5.751 0 0 0-5.087-1.594L95.869 95.872z"/><path d="M166.67 187.163c-.67 0-1.351-.03-2.021-.1a21.97 21.97 0 0 1-1.979-.3c-.66-.13-1.31-.3-1.95-.49-.64-.2-1.27-.42-1.89-.68-.62-.25-1.23-.54-1.81-.85-.59-.32-1.17-.66-1.73-1.03-.561-.37-1.1-.78-1.62-1.2-.521-.42-1.02-.88-1.49-1.35-.479-.47-.93-.98-1.361-1.5-.42-.52-.819-1.06-1.189-1.62a20.427 20.427 0 0 1-1.89-3.54c-.25-.61-.48-1.25-.68-1.88-.189-.64-.36-1.3-.491-1.95a22.76 22.76 0 0 1-.299-1.99c-.069-.67-.1-1.35-.1-2.02 0-.67.031-1.34.1-2.01.07-.67.169-1.34.299-1.99.131-.66.302-1.31.491-1.95.2-.64.43-1.27.68-1.89a21.645 21.645 0 0 1 1.89-3.54c.37-.55.769-1.1 1.189-1.62.431-.52.882-1.02 1.361-1.49.47-.48.969-.93 1.49-1.36a20.871 20.871 0 0 1 3.35-2.22c.58-.31 1.19-.6 1.81-.86.62-.25 1.25-.48 1.89-.67.64-.2 1.29-.36 1.95-.5.649-.13 1.32-.23 1.979-.3 1.341-.13 2.701-.13 4.041 0 .66.07 1.33.17 1.99.3.65.14 1.299.3 1.94.5.64.19 1.28.42 1.89.67.62.26 1.23.55 1.82.86.59.31 1.17.66 1.72 1.03.56.37 1.099.77 1.62 1.19.52.43 1.02.88 1.5 1.36.47.47.92.97 1.35 1.49.42.52.82 1.07 1.19 1.62.37.56.719 1.14 1.03 1.73.319.59.61 1.2.86 1.81.26.62.48 1.25.68 1.89.189.64.36 1.29.49 1.95.13.65.23 1.32.299 1.99.07.67.101 1.34.101 2.01 0 .67-.031 1.35-.101 2.02-.069.66-.169 1.33-.299 1.99a22.6 22.6 0 0 1-.49 1.95c-.2.63-.42 1.27-.68 1.88-.25.62-.541 1.23-.86 1.82-.311.59-.66 1.17-1.03 1.72-.37.56-.77 1.1-1.19 1.62-.43.52-.88 1.03-1.35 1.5a21.248 21.248 0 0 1-3.12 2.55c-.55.37-1.13.71-1.72 1.03-.59.31-1.2.6-1.82.85-.61.26-1.25.48-1.89.68-.641.19-1.29.36-1.94.49-.66.13-1.33.23-1.99.3-.67.07-1.35.1-2.02.1z"/></g><g clip-path="url(#c)" opacity="0" style="display:block"><g fill="none" class="primary design" style="display:none"><path/><path/></g><g class="primary design" style="display:none"><path/><path/></g></g><g class="com" style="display:none"><path/><path/><path/><path/><path/><path/><path/><path/><path/><path/><path/><path/></g></g></svg>